<?xml version="1.0" standalone="no"?>
<!DOCTYPE svg PUBLIC "-//W3C//DTD SVG 1.1//EN" "http://www.w3.org/Graphics/SVG/1.1/DTD/svg11.dtd">
<svg width="800" height="600" version="1.1" xmlns="http://www.w3.org/2000/svg">
<rect width="800" height="600" x="0" y="0" style="fill:rgb(238,238,238);stroke:none"/>
<rect width="800" height="600" x="0" y="0" style="fill:rgb(255,255,255);stroke:none"/>
<text x="2" y="566" fill="rgb(0,0,0)" font-family="Arial" font-size="12">0</text>
<text x="2" y="511" fill="rgb(0,0,0)" font-family="Arial" font-size="12">25000</text>
<text x="2" y="455" fill="rgb(0,0,0)" font-family="Arial" font-size="12">50000</text>
<text x="2" y="399" fill="rgb(0,0,0)" font-family="Arial" font-size="12">75000</text>
<text x="2" y="343" fill="rgb(0,0,0)" font-family="Arial" font-size="12">100000</text>
<text x="2" y="287" fill="rgb(0,0,0)" font-family="Arial" font-size="12">125000</text>
<text x="2" y="231" fill="rgb(0,0,0)" font-family="Arial" font-size="12">150000</text>
<text x="2" y="175" fill="rgb(0,0,0)" font-family="Arial" font-size="12">175000</text>
<text x="2" y="119" fill="rgb(0,0,0)" font-family="Arial" font-size="12">200000</text>
<text x="2" y="63" fill="rgb(0,0,0)" font-family="Arial" font-size="12">225000</text>
<text x="282" y="30" fill="rgb(0,0,0)" font-family="Arial" font-size="12">Quality score distribution over all sequences</text>
<line x1="53" y1="560" x2="790" y2="560" stroke="rgb(0,0,0)" stroke-width="1"/>
<line x1="53" y1="560" x2="53" y2="40" stroke="rgb(0,0,0)" stroke-width="1"/>
<text x="281" y="595" fill="rgb(0,0,0)" font-family="Arial" font-size="12">Mean Sequence Quality (Phred Score)</text>
<text x="60" y="575" fill="rgb(0,0,0)" font-family="Arial" font-size="12">9</text>
<rect width="23" height="520" x="76" y="40" style="fill:rgb(230,230,230);stroke:none"/>
<text x="79" y="575" fill="rgb(0,0,0)" font-family="Arial" font-size="12">10</text>
<text x="102" y="575" fill="rgb(0,0,0)" font-family="Arial" font-size="12">11</text>
<rect width="23" height="520" x="122" y="40" style="fill:rgb(230,230,230);stroke:none"/>
<text x="125" y="575" fill="rgb(0,0,0)" font-family="Arial" font-size="12">12</text>
<text x="148" y="575" fill="rgb(0,0,0)" font-family="Arial" font-size="12">13</text>
<rect width="23" height="520" x="168" y="40" style="fill:rgb(230,230,230);stroke:none"/>
<text x="171" y="575" fill="rgb(0,0,0)" font-family="Arial" font-size="12">14</text>
<text x="194" y="575" fill="rgb(0,0,0)" font-family="Arial" font-size="12">15</text>
<rect width="23" height="520" x="214" y="40" style="fill:rgb(230,230,230);stroke:none"/>
<text x="217" y="575" fill="rgb(0,0,0)" font-family="Arial" font-size="12">16</text>
<text x="240" y="575" fill="rgb(0,0,0)" font-family="Arial" font-size="12">17</text>
<rect width="23" height="520" x="260" y="40" style="fill:rgb(230,230,230);stroke:none"/>
<text x="263" y="575" fill="rgb(0,0,0)" font-family="Arial" font-size="12">18</text>
<text x="286" y="575" fill="rgb(0,0,0)" font-family="Arial" font-size="12">19</text>
<rect width="23" height="520" x="306" y="40" style="fill:rgb(230,230,230);stroke:none"/>
<text x="309" y="575" fill="rgb(0,0,0)" font-family="Arial" font-size="12">20</text>
<text x="332" y="575" fill="rgb(0,0,0)" font-family="Arial" font-size="12">21</text>
<rect width="23" height="520" x="352" y="40" style="fill:rgb(230,230,230);stroke:none"/>
<text x="355" y="575" fill="rgb(0,0,0)" font-family="Arial" font-size="12">22</text>
<text x="378" y="575" fill="rgb(0,0,0)" font-family="Arial" font-size="12">23</text>
<rect width="23" height="520" x="398" y="40" style="fill:rgb(230,230,230);stroke:none"/>
<text x="401" y="575" fill="rgb(0,0,0)" font-family="Arial" font-size="12">24</text>
<text x="424" y="575" fill="rgb(0,0,0)" font-family="Arial" font-size="12">25</text>
<rect width="23" height="520" x="444" y="40" style="fill:rgb(230,230,230);stroke:none"/>
<text x="447" y="575" fill="rgb(0,0,0)" font-family="Arial" font-size="12">26</text>
<text x="470" y="575" fill="rgb(0,0,0)" font-family="Arial" font-size="12">27</text>
<rect width="23" height="520" x="490" y="40" style="fill:rgb(230,230,230);stroke:none"/>
<text x="493" y="575" fill="rgb(0,0,0)" font-family="Arial" font-size="12">28</text>
<text x="516" y="575" fill="rgb(0,0,0)" font-family="Arial" font-size="12">29</text>
<rect width="23" height="520" x="536" y="40" style="fill:rgb(230,230,230);stroke:none"/>
<text x="539" y="575" fill="rgb(0,0,0)" font-family="Arial" font-size="12">30</text>
<text x="562" y="575" fill="rgb(0,0,0)" font-family="Arial" font-size="12">31</text>
<rect width="23" height="520" x="582" y="40" style="fill:rgb(230,230,230);stroke:none"/>
<text x="585" y="575" fill="rgb(0,0,0)" font-family="Arial" font-size="12">32</text>
<text x="608" y="575" fill="rgb(0,0,0)" font-family="Arial" font-size="12">33</text>
<rect width="23" height="520" x="628" y="40" style="fill:rgb(230,230,230);stroke:none"/>
<text x="631" y="575" fill="rgb(0,0,0)" font-family="Arial" font-size="12">34</text>
<text x="654" y="575" fill="rgb(0,0,0)" font-family="Arial" font-size="12">35</text>
<rect width="23" height="520" x="674" y="40" style="fill:rgb(230,230,230);stroke:none"/>
<text x="677" y="575" fill="rgb(0,0,0)" font-family="Arial" font-size="12">36</text>
<text x="700" y="575" fill="rgb(0,0,0)" font-family="Arial" font-size="12">37</text>
<rect width="23" height="520" x="720" y="40" style="fill:rgb(230,230,230);stroke:none"/>
<text x="723" y="575" fill="rgb(0,0,0)" font-family="Arial" font-size="12">38</text>
<text x="746" y="575" fill="rgb(0,0,0)" font-family="Arial" font-size="12">39</text>
<line x1="53" y1="560" x2="790" y2="560" stroke="rgb(180,180,180)" stroke-width="1"/>
<line x1="53" y1="505" x2="790" y2="505" stroke="rgb(180,180,180)" stroke-width="1"/>
<line x1="53" y1="449" x2="790" y2="449" stroke="rgb(180,180,180)" stroke-width="1"/>
<line x1="53" y1="393" x2="790" y2="393" stroke="rgb(180,180,180)" stroke-width="1"/>
<line x1="53" y1="337" x2="790" y2="337" stroke="rgb(180,180,180)" stroke-width="1"/>
<line x1="53" y1="281" x2="790" y2="281" stroke="rgb(180,180,180)" stroke-width="1"/>
<line x1="53" y1="225" x2="790" y2="225" stroke="rgb(180,180,180)" stroke-width="1"/>
<line x1="53" y1="169" x2="790" y2="169" stroke="rgb(180,180,180)" stroke-width="1"/>
<line x1="53" y1="113" x2="790" y2="113" stroke="rgb(180,180,180)" stroke-width="1"/>
<line x1="53" y1="57" x2="790" y2="57" stroke="rgb(180,180,180)" stroke-width="1"/>
<line x1="64" y1="560" x2="87" y2="560" stroke="rgb(136,34,85)" stroke-width="1"/>
<line x1="87" y1="560" x2="110" y2="560" stroke="rgb(136,34,85)" stroke-width="1"/>
<line x1="110" y1="560" x2="133" y2="560" stroke="rgb(136,34,85)" stroke-width="1"/>
<line x1="133" y1="560" x2="156" y2="560" stroke="rgb(136,34,85)" stroke-width="1"/>
<line x1="156" y1="560" x2="179" y2="560" stroke="rgb(136,34,85)" stroke-width="1"/>
<line x1="179" y1="560" x2="202" y2="560" stroke="rgb(136,34,85)" stroke-width="1"/>
<line x1="202" y1="560" x2="225" y2="560" stroke="rgb(136,34,85)" stroke-width="1"/>
<line x1="225" y1="560" x2="248" y2="560" stroke="rgb(136,34,85)" stroke-width="1"/>
<line x1="248" y1="560" x2="271" y2="560" stroke="rgb(136,34,85)" stroke-width="1"/>
<line x1="271" y1="560" x2="294" y2="560" stroke="rgb(136,34,85)" stroke-width="1"/>
<line x1="294" y1="560" x2="317" y2="560" stroke="rgb(136,34,85)" stroke-width="1"/>
<line x1="317" y1="560" x2="340" y2="560" stroke="rgb(136,34,85)" stroke-width="1"/>
<line x1="340" y1="560" x2="363" y2="560" stroke="rgb(136,34,85)" stroke-width="1"/>
<line x1="363" y1="560" x2="386" y2="559" stroke="rgb(136,34,85)" stroke-width="1"/>
<line x1="386" y1="559" x2="409" y2="559" stroke="rgb(136,34,85)" stroke-width="1"/>
<line x1="409" y1="559" x2="432" y2="559" stroke="rgb(136,34,85)" stroke-width="1"/>
<line x1="432" y1="559" x2="455" y2="558" stroke="rgb(136,34,85)" stroke-width="1"/>
<line x1="455" y1="558" x2="478" y2="557" stroke="rgb(136,34,85)" stroke-width="1"/>
<line x1="478" y1="557" x2="501" y2="557" stroke="rgb(136,34,85)" stroke-width="1"/>
<line x1="501" y1="557" x2="524" y2="556" stroke="rgb(136,34,85)" stroke-width="1"/>
<line x1="524" y1="556" x2="547" y2="554" stroke="rgb(136,34,85)" stroke-width="1"/>
<line x1="547" y1="554" x2="570" y2="552" stroke="rgb(136,34,85)" stroke-width="1"/>
<line x1="570" y1="552" x2="593" y2="550" stroke="rgb(136,34,85)" stroke-width="1"/>
<line x1="593" y1="550" x2="616" y2="546" stroke="rgb(136,34,85)" stroke-width="1"/>
<line x1="616" y1="546" x2="639" y2="540" stroke="rgb(136,34,85)" stroke-width="1"/>
<line x1="639" y1="540" x2="662" y2="527" stroke="rgb(136,34,85)" stroke-width="1"/>
<line x1="662" y1="527" x2="685" y2="492" stroke="rgb(136,34,85)" stroke-width="1"/>
<line x1="685" y1="492" x2="708" y2="372" stroke="rgb(136,34,85)" stroke-width="1"/>
<line x1="708" y1="372" x2="731" y2="40" stroke="rgb(136,34,85)" stroke-width="1"/>
<line x1="731" y1="40" x2="754" y2="331" stroke="rgb(136,34,85)" stroke-width="1"/>
<rect width="183" height="23" x="607" y="40" style="fill:rgb(255,255,255);stroke:none"/>
<rect width="183" height="23" x="607" y="40" rx="0" ry="0" style="fill:none;stroke-width:1;stroke:rgb(192,192,192)"/>
<text x="610" y="55" fill="rgb(136,34,85)" font-family="Arial" font-size="12" font-weight="bold">Average Quality per read</text>
</svg>
