<?xml version="1.0" standalone="no"?>
<!DOCTYPE svg PUBLIC "-//W3C//DTD SVG 1.1//EN" "http://www.w3.org/Graphics/SVG/1.1/DTD/svg11.dtd">
<svg width="800" height="600" version="1.1" xmlns="http://www.w3.org/2000/svg">
<rect width="800" height="600" x="0" y="0" style="fill:rgb(238,238,238);stroke:none"/>
<rect width="800" height="600" x="0" y="0" style="fill:rgb(255,255,255);stroke:none"/>
<text x="2" y="566" fill="rgb(0,0,0)" font-family="Arial" font-size="12">0</text>
<text x="2" y="502" fill="rgb(0,0,0)" font-family="Arial" font-size="12">25000</text>
<text x="2" y="437" fill="rgb(0,0,0)" font-family="Arial" font-size="12">50000</text>
<text x="2" y="372" fill="rgb(0,0,0)" font-family="Arial" font-size="12">75000</text>
<text x="2" y="307" fill="rgb(0,0,0)" font-family="Arial" font-size="12">100000</text>
<text x="2" y="242" fill="rgb(0,0,0)" font-family="Arial" font-size="12">125000</text>
<text x="2" y="178" fill="rgb(0,0,0)" font-family="Arial" font-size="12">150000</text>
<text x="2" y="113" fill="rgb(0,0,0)" font-family="Arial" font-size="12">175000</text>
<text x="2" y="48" fill="rgb(0,0,0)" font-family="Arial" font-size="12">200000</text>
<text x="282" y="30" fill="rgb(0,0,0)" font-family="Arial" font-size="12">Quality score distribution over all sequences</text>
<line x1="53" y1="560" x2="790" y2="560" stroke="rgb(0,0,0)" stroke-width="1"/>
<line x1="53" y1="560" x2="53" y2="40" stroke="rgb(0,0,0)" stroke-width="1"/>
<text x="281" y="595" fill="rgb(0,0,0)" font-family="Arial" font-size="12">Mean Sequence Quality (Phred Score)</text>
<text x="69" y="575" fill="rgb(0,0,0)" font-family="Arial" font-size="12">25</text>
<rect width="49" height="520" x="102" y="40" style="fill:rgb(230,230,230);stroke:none"/>
<text x="118" y="575" fill="rgb(0,0,0)" font-family="Arial" font-size="12">26</text>
<text x="167" y="575" fill="rgb(0,0,0)" font-family="Arial" font-size="12">27</text>
<rect width="49" height="520" x="200" y="40" style="fill:rgb(230,230,230);stroke:none"/>
<text x="216" y="575" fill="rgb(0,0,0)" font-family="Arial" font-size="12">28</text>
<text x="265" y="575" fill="rgb(0,0,0)" font-family="Arial" font-size="12">29</text>
<rect width="49" height="520" x="298" y="40" style="fill:rgb(230,230,230);stroke:none"/>
<text x="314" y="575" fill="rgb(0,0,0)" font-family="Arial" font-size="12">30</text>
<text x="363" y="575" fill="rgb(0,0,0)" font-family="Arial" font-size="12">31</text>
<rect width="49" height="520" x="396" y="40" style="fill:rgb(230,230,230);stroke:none"/>
<text x="412" y="575" fill="rgb(0,0,0)" font-family="Arial" font-size="12">32</text>
<text x="461" y="575" fill="rgb(0,0,0)" font-family="Arial" font-size="12">33</text>
<rect width="49" height="520" x="494" y="40" style="fill:rgb(230,230,230);stroke:none"/>
<text x="510" y="575" fill="rgb(0,0,0)" font-family="Arial" font-size="12">34</text>
<text x="559" y="575" fill="rgb(0,0,0)" font-family="Arial" font-size="12">35</text>
<rect width="49" height="520" x="592" y="40" style="fill:rgb(230,230,230);stroke:none"/>
<text x="608" y="575" fill="rgb(0,0,0)" font-family="Arial" font-size="12">36</text>
<text x="657" y="575" fill="rgb(0,0,0)" font-family="Arial" font-size="12">37</text>
<rect width="49" height="520" x="690" y="40" style="fill:rgb(230,230,230);stroke:none"/>
<text x="706" y="575" fill="rgb(0,0,0)" font-family="Arial" font-size="12">38</text>
<text x="755" y="575" fill="rgb(0,0,0)" font-family="Arial" font-size="12">39</text>
<line x1="53" y1="560" x2="790" y2="560" stroke="rgb(180,180,180)" stroke-width="1"/>
<line x1="53" y1="496" x2="790" y2="496" stroke="rgb(180,180,180)" stroke-width="1"/>
<line x1="53" y1="431" x2="790" y2="431" stroke="rgb(180,180,180)" stroke-width="1"/>
<line x1="53" y1="366" x2="790" y2="366" stroke="rgb(180,180,180)" stroke-width="1"/>
<line x1="53" y1="301" x2="790" y2="301" stroke="rgb(180,180,180)" stroke-width="1"/>
<line x1="53" y1="236" x2="790" y2="236" stroke="rgb(180,180,180)" stroke-width="1"/>
<line x1="53" y1="172" x2="790" y2="172" stroke="rgb(180,180,180)" stroke-width="1"/>
<line x1="53" y1="107" x2="790" y2="107" stroke="rgb(180,180,180)" stroke-width="1"/>
<line x1="53" y1="42" x2="790" y2="42" stroke="rgb(180,180,180)" stroke-width="1"/>
<line x1="77" y1="560" x2="126" y2="560" stroke="rgb(136,34,85)" stroke-width="1"/>
<line x1="126" y1="560" x2="175" y2="560" stroke="rgb(136,34,85)" stroke-width="1"/>
<line x1="175" y1="560" x2="224" y2="560" stroke="rgb(136,34,85)" stroke-width="1"/>
<line x1="224" y1="560" x2="273" y2="560" stroke="rgb(136,34,85)" stroke-width="1"/>
<line x1="273" y1="560" x2="322" y2="558" stroke="rgb(136,34,85)" stroke-width="1"/>
<line x1="322" y1="558" x2="371" y2="555" stroke="rgb(136,34,85)" stroke-width="1"/>
<line x1="371" y1="555" x2="420" y2="551" stroke="rgb(136,34,85)" stroke-width="1"/>
<line x1="420" y1="551" x2="469" y2="545" stroke="rgb(136,34,85)" stroke-width="1"/>
<line x1="469" y1="545" x2="518" y2="535" stroke="rgb(136,34,85)" stroke-width="1"/>
<line x1="518" y1="535" x2="567" y2="517" stroke="rgb(136,34,85)" stroke-width="1"/>
<line x1="567" y1="517" x2="616" y2="474" stroke="rgb(136,34,85)" stroke-width="1"/>
<line x1="616" y1="474" x2="665" y2="345" stroke="rgb(136,34,85)" stroke-width="1"/>
<line x1="665" y1="345" x2="714" y2="40" stroke="rgb(136,34,85)" stroke-width="1"/>
<line x1="714" y1="40" x2="763" y2="421" stroke="rgb(136,34,85)" stroke-width="1"/>
<rect width="183" height="23" x="607" y="40" style="fill:rgb(255,255,255);stroke:none"/>
<rect width="183" height="23" x="607" y="40" rx="0" ry="0" style="fill:none;stroke-width:1;stroke:rgb(192,192,192)"/>
<text x="610" y="55" fill="rgb(136,34,85)" font-family="Arial" font-size="12" font-weight="bold">Average Quality per read</text>
</svg>
