<?xml version="1.0" standalone="no"?>
<!DOCTYPE svg PUBLIC "-//W3C//DTD SVG 1.1//EN" "http://www.w3.org/Graphics/SVG/1.1/DTD/svg11.dtd">
<svg width="800" height="600" version="1.1" xmlns="http://www.w3.org/2000/svg">
<rect width="800" height="600" x="0" y="0" style="fill:rgb(238,238,238);stroke:none"/>
<rect width="800" height="600" x="0" y="0" style="fill:rgb(255,255,255);stroke:none"/>
<text x="2" y="566" fill="rgb(0,0,0)" font-family="Arial" font-size="12">0</text>
<text x="2" y="501" fill="rgb(0,0,0)" font-family="Arial" font-size="12">50000</text>
<text x="2" y="435" fill="rgb(0,0,0)" font-family="Arial" font-size="12">100000</text>
<text x="2" y="369" fill="rgb(0,0,0)" font-family="Arial" font-size="12">150000</text>
<text x="2" y="303" fill="rgb(0,0,0)" font-family="Arial" font-size="12">200000</text>
<text x="2" y="237" fill="rgb(0,0,0)" font-family="Arial" font-size="12">250000</text>
<text x="2" y="171" fill="rgb(0,0,0)" font-family="Arial" font-size="12">300000</text>
<text x="2" y="105" fill="rgb(0,0,0)" font-family="Arial" font-size="12">350000</text>
<text x="258" y="30" fill="rgb(0,0,0)" font-family="Arial" font-size="12">Distribution of sequence lengths over all sequences</text>
<line x1="53" y1="560" x2="790" y2="560" stroke="rgb(0,0,0)" stroke-width="1"/>
<line x1="53" y1="560" x2="53" y2="40" stroke="rgb(0,0,0)" stroke-width="1"/>
<text x="330" y="595" fill="rgb(0,0,0)" font-family="Arial" font-size="12">Sequence Length (bp)</text>
<text x="58" y="575" fill="rgb(0,0,0)" font-family="Arial" font-size="12">49</text>
<rect width="26" height="520" x="79" y="40" style="fill:rgb(230,230,230);stroke:none"/>
<text x="84" y="575" fill="rgb(0,0,0)" font-family="Arial" font-size="12">50</text>
<text x="110" y="575" fill="rgb(0,0,0)" font-family="Arial" font-size="12">51</text>
<rect width="26" height="520" x="131" y="40" style="fill:rgb(230,230,230);stroke:none"/>
<text x="136" y="575" fill="rgb(0,0,0)" font-family="Arial" font-size="12">52</text>
<text x="162" y="575" fill="rgb(0,0,0)" font-family="Arial" font-size="12">53</text>
<rect width="26" height="520" x="183" y="40" style="fill:rgb(230,230,230);stroke:none"/>
<text x="188" y="575" fill="rgb(0,0,0)" font-family="Arial" font-size="12">54</text>
<text x="214" y="575" fill="rgb(0,0,0)" font-family="Arial" font-size="12">55</text>
<rect width="26" height="520" x="235" y="40" style="fill:rgb(230,230,230);stroke:none"/>
<text x="240" y="575" fill="rgb(0,0,0)" font-family="Arial" font-size="12">56</text>
<text x="266" y="575" fill="rgb(0,0,0)" font-family="Arial" font-size="12">57</text>
<rect width="26" height="520" x="287" y="40" style="fill:rgb(230,230,230);stroke:none"/>
<text x="292" y="575" fill="rgb(0,0,0)" font-family="Arial" font-size="12">58</text>
<text x="318" y="575" fill="rgb(0,0,0)" font-family="Arial" font-size="12">59</text>
<rect width="26" height="520" x="339" y="40" style="fill:rgb(230,230,230);stroke:none"/>
<text x="344" y="575" fill="rgb(0,0,0)" font-family="Arial" font-size="12">60</text>
<text x="370" y="575" fill="rgb(0,0,0)" font-family="Arial" font-size="12">61</text>
<rect width="26" height="520" x="391" y="40" style="fill:rgb(230,230,230);stroke:none"/>
<text x="396" y="575" fill="rgb(0,0,0)" font-family="Arial" font-size="12">62</text>
<text x="422" y="575" fill="rgb(0,0,0)" font-family="Arial" font-size="12">63</text>
<rect width="26" height="520" x="443" y="40" style="fill:rgb(230,230,230);stroke:none"/>
<text x="448" y="575" fill="rgb(0,0,0)" font-family="Arial" font-size="12">64</text>
<text x="474" y="575" fill="rgb(0,0,0)" font-family="Arial" font-size="12">65</text>
<rect width="26" height="520" x="495" y="40" style="fill:rgb(230,230,230);stroke:none"/>
<text x="500" y="575" fill="rgb(0,0,0)" font-family="Arial" font-size="12">66</text>
<text x="526" y="575" fill="rgb(0,0,0)" font-family="Arial" font-size="12">67</text>
<rect width="26" height="520" x="547" y="40" style="fill:rgb(230,230,230);stroke:none"/>
<text x="552" y="575" fill="rgb(0,0,0)" font-family="Arial" font-size="12">68</text>
<text x="578" y="575" fill="rgb(0,0,0)" font-family="Arial" font-size="12">69</text>
<rect width="26" height="520" x="599" y="40" style="fill:rgb(230,230,230);stroke:none"/>
<text x="604" y="575" fill="rgb(0,0,0)" font-family="Arial" font-size="12">70</text>
<text x="630" y="575" fill="rgb(0,0,0)" font-family="Arial" font-size="12">71</text>
<rect width="26" height="520" x="651" y="40" style="fill:rgb(230,230,230);stroke:none"/>
<text x="656" y="575" fill="rgb(0,0,0)" font-family="Arial" font-size="12">72</text>
<text x="682" y="575" fill="rgb(0,0,0)" font-family="Arial" font-size="12">73</text>
<rect width="26" height="520" x="703" y="40" style="fill:rgb(230,230,230);stroke:none"/>
<text x="708" y="575" fill="rgb(0,0,0)" font-family="Arial" font-size="12">74</text>
<text x="734" y="575" fill="rgb(0,0,0)" font-family="Arial" font-size="12">75</text>
<rect width="26" height="520" x="755" y="40" style="fill:rgb(230,230,230);stroke:none"/>
<text x="760" y="575" fill="rgb(0,0,0)" font-family="Arial" font-size="12">76</text>
<line x1="53" y1="560" x2="790" y2="560" stroke="rgb(180,180,180)" stroke-width="1"/>
<line x1="53" y1="495" x2="790" y2="495" stroke="rgb(180,180,180)" stroke-width="1"/>
<line x1="53" y1="429" x2="790" y2="429" stroke="rgb(180,180,180)" stroke-width="1"/>
<line x1="53" y1="363" x2="790" y2="363" stroke="rgb(180,180,180)" stroke-width="1"/>
<line x1="53" y1="297" x2="790" y2="297" stroke="rgb(180,180,180)" stroke-width="1"/>
<line x1="53" y1="231" x2="790" y2="231" stroke="rgb(180,180,180)" stroke-width="1"/>
<line x1="53" y1="165" x2="790" y2="165" stroke="rgb(180,180,180)" stroke-width="1"/>
<line x1="53" y1="99" x2="790" y2="99" stroke="rgb(180,180,180)" stroke-width="1"/>
<line x1="66" y1="560" x2="92" y2="560" stroke="rgb(136,34,85)" stroke-width="1"/>
<line x1="92" y1="560" x2="118" y2="560" stroke="rgb(136,34,85)" stroke-width="1"/>
<line x1="118" y1="560" x2="144" y2="560" stroke="rgb(136,34,85)" stroke-width="1"/>
<line x1="144" y1="560" x2="170" y2="560" stroke="rgb(136,34,85)" stroke-width="1"/>
<line x1="170" y1="560" x2="196" y2="560" stroke="rgb(136,34,85)" stroke-width="1"/>
<line x1="196" y1="560" x2="222" y2="560" stroke="rgb(136,34,85)" stroke-width="1"/>
<line x1="222" y1="560" x2="248" y2="560" stroke="rgb(136,34,85)" stroke-width="1"/>
<line x1="248" y1="560" x2="274" y2="560" stroke="rgb(136,34,85)" stroke-width="1"/>
<line x1="274" y1="560" x2="300" y2="560" stroke="rgb(136,34,85)" stroke-width="1"/>
<line x1="300" y1="560" x2="326" y2="560" stroke="rgb(136,34,85)" stroke-width="1"/>
<line x1="326" y1="560" x2="352" y2="560" stroke="rgb(136,34,85)" stroke-width="1"/>
<line x1="352" y1="560" x2="378" y2="560" stroke="rgb(136,34,85)" stroke-width="1"/>
<line x1="378" y1="560" x2="404" y2="560" stroke="rgb(136,34,85)" stroke-width="1"/>
<line x1="404" y1="560" x2="430" y2="560" stroke="rgb(136,34,85)" stroke-width="1"/>
<line x1="430" y1="560" x2="456" y2="560" stroke="rgb(136,34,85)" stroke-width="1"/>
<line x1="456" y1="560" x2="482" y2="560" stroke="rgb(136,34,85)" stroke-width="1"/>
<line x1="482" y1="560" x2="508" y2="560" stroke="rgb(136,34,85)" stroke-width="1"/>
<line x1="508" y1="560" x2="534" y2="559" stroke="rgb(136,34,85)" stroke-width="1"/>
<line x1="534" y1="559" x2="560" y2="559" stroke="rgb(136,34,85)" stroke-width="1"/>
<line x1="560" y1="559" x2="586" y2="559" stroke="rgb(136,34,85)" stroke-width="1"/>
<line x1="586" y1="559" x2="612" y2="559" stroke="rgb(136,34,85)" stroke-width="1"/>
<line x1="612" y1="559" x2="638" y2="560" stroke="rgb(136,34,85)" stroke-width="1"/>
<line x1="638" y1="560" x2="664" y2="560" stroke="rgb(136,34,85)" stroke-width="1"/>
<line x1="664" y1="560" x2="690" y2="560" stroke="rgb(136,34,85)" stroke-width="1"/>
<line x1="690" y1="560" x2="716" y2="560" stroke="rgb(136,34,85)" stroke-width="1"/>
<line x1="716" y1="560" x2="742" y2="40" stroke="rgb(136,34,85)" stroke-width="1"/>
<line x1="742" y1="40" x2="768" y2="560" stroke="rgb(136,34,85)" stroke-width="1"/>
<rect width="130" height="23" x="660" y="40" style="fill:rgb(255,255,255);stroke:none"/>
<rect width="130" height="23" x="660" y="40" rx="0" ry="0" style="fill:none;stroke-width:1;stroke:rgb(192,192,192)"/>
<text x="663" y="55" fill="rgb(136,34,85)" font-family="Arial" font-size="12" font-weight="bold">Sequence Length</text>
</svg>
